<?xml version="1.0" encoding="utf-8"?>
<!-- Generator: Adobe Illustrator 24.3.0, SVG Export Plug-In . SVG Version: 6.00 Build 0)  -->
<svg version="1.1" id="Layer_1" xmlns="http://www.w3.org/2000/svg" xmlns:xlink="http://www.w3.org/1999/xlink" x="0px" y="0px"
	 viewBox="0 0 473.7 518.9" style="enable-background:new 0 0 473.7 518.9;" xml:space="preserve">
<style type="text/css">
	.st0{fill:#70A4C7;}
	.st1{fill:#3A4E5C;}
	.st2{opacity:0;fill:none;stroke:#000000;stroke-width:0.45;stroke-miterlimit:10;}
	.st3{fill:#416986;}
	.st4{fill:#4984AF;}
	.st5{fill:none;stroke:#000000;stroke-width:0.9;stroke-miterlimit:10;}
	.st6{fill:#7EADCC;}
	.st7{fill:#B2B2B2;}
	.st8{fill:none;stroke:#000000;stroke-width:0.45;stroke-miterlimit:10;}
	.st9{font-family:'Helvetica';}
	.st10{font-size:8px;}
	.st11{fill:#FFFFFF;}
</style>
<image style="overflow:visible;" width="1854" height="1116" xlink:href="E0E4420ACD1917CA.png"  transform="matrix(0.1249 0 0 0.1249 18.7519 345.391)">
</image>
<path class="st0" d="M325.2,456.8c10.9,0,19.8,10.9,19.8,24.3c0,13.5-8.9,24.3-19.8,24.3h-59.6c-10.9,0-19.8-10.9-19.8-24.3
	c0-13.5,8.9-24.3,19.8-24.3H325.2z"/>
<path class="st1" d="M442.1,95.5c10.9,0,19.8,10.9,19.8,24.3c0,13.5-8.9,24.3-19.8,24.3h-59.6c-10.9,0-19.8-10.9-19.8-24.3
	c0-13.5,8.9-24.3,19.8-24.3H442.1z"/>
<path class="st2" d="M442.1,95.5c10.9,0,19.8,10.9,19.8,24.3c0,13.5-8.9,24.3-19.8,24.3h-59.6c-10.9,0-19.8-10.9-19.8-24.3
	c0-13.5,8.9-24.3,19.8-24.3H442.1z"/>
<path class="st1" d="M325.1,95.5c10.9,0,19.8,10.9,19.8,24.3c0,13.5-8.9,24.3-19.8,24.3h-59.6c-10.9,0-19.8-10.9-19.8-24.3
	c0-13.5,8.9-24.3,19.8-24.3H325.1z"/>
<path class="st2" d="M325.1,95.5c10.9,0,19.8,10.9,19.8,24.3c0,13.5-8.9,24.3-19.8,24.3h-59.6c-10.9,0-19.8-10.9-19.8-24.3
	c0-13.5,8.9-24.3,19.8-24.3H325.1z"/>
<path class="st1" d="M208.1,95.5c10.9,0,19.8,10.9,19.8,24.3c0,13.5-8.9,24.3-19.8,24.3h-59.6c-10.9,0-19.8-10.9-19.8-24.3
	c0-13.5,8.9-24.3,19.8-24.3H208.1z"/>
<path class="st2" d="M208.1,95.5c10.9,0,19.8,10.9,19.8,24.3c0,13.5-8.9,24.3-19.8,24.3h-59.6c-10.9,0-19.8-10.9-19.8-24.3
	c0-13.5,8.9-24.3,19.8-24.3H208.1z"/>
<path class="st3" d="M304.2,189.1c0-2,1.6-3.6,3.6-3.6h92.1c2,0,3.6,1.6,3.6,3.6v46.8c0,2-1.6,3.6-3.6,3.6h-92.1
	c-2,0-3.6-1.6-3.6-3.6V189.1z"/>
<path class="st2" d="M304.2,189.1c0-2,1.6-3.6,3.6-3.6h92.1c2,0,3.6,1.6,3.6,3.6v46.8c0,2-1.6,3.6-3.6,3.6h-92.1
	c-2,0-3.6-1.6-3.6-3.6V189.1z"/>
<path class="st4" d="M304.2,277.7c0-1.3,1-2.2,2.2-2.2h94.8c1.3,0,2.2,1,2.2,2.2v49.5c0,1.3-1,2.2-2.2,2.2h-94.8
	c-1.3,0-2.2-1-2.2-2.2V277.7z"/>
<path class="st2" d="M304.2,277.7c0-1.3,1-2.2,2.2-2.2h94.8c1.3,0,2.2,1,2.2,2.2v49.5c0,1.3-1,2.2-2.2,2.2h-94.8
	c-1.3,0-2.2-1-2.2-2.2V277.7z"/>
<line class="st5" x1="353.9" y1="239.9" x2="353.9" y2="267.2"/>
<rect x="353.4" y="239.5" width="0.9" height="0.5"/>
<polygon points="353.9,274 351.7,267.6 355.9,267.6 "/>
<polygon class="st5" points="353.9,274 351.7,267.6 355.9,267.6 "/>
<path class="st6" d="M304.2,367.7c0-1.3,1-2.2,2.2-2.2h94.8c1.3,0,2.2,1,2.2,2.2v49.5c0,1.3-1,2.2-2.2,2.2h-94.8
	c-1.3,0-2.2-1-2.2-2.2V367.7z"/>
<path class="st2" d="M304.2,367.7c0-1.3,1-2.2,2.2-2.2h94.8c1.3,0,2.2,1,2.2,2.2v49.5c0,1.3-1,2.2-2.2,2.2h-94.8
	c-1.3,0-2.2-1-2.2-2.2V367.7z"/>
<line class="st5" x1="353.9" y1="329.9" x2="353.9" y2="357.2"/>
<rect x="353.4" y="329.5" width="0.9" height="0.5"/>
<polygon points="353.9,364 351.7,357.6 355.9,357.6 "/>
<polygon class="st5" points="353.9,364 351.7,357.6 355.9,357.6 "/>
<rect x="353.4" y="419.5" width="0.9" height="0.5"/>
<path class="st7" d="M86.9,16.6c10.9,0,19.8,10.9,19.8,24.3c0,13.5-8.9,24.3-19.8,24.3H27.3C16.3,65.3,7.4,54.4,7.4,41
	c0-13.5,8.9-24.3,19.8-24.3H86.9z"/>
<path class="st8" d="M86.9,16.6c10.9,0,19.8,10.9,19.8,24.3c0,13.5-8.9,24.3-19.8,24.3H27.3C16.3,65.3,7.4,54.4,7.4,41
	c0-13.5,8.9-24.3,19.8-24.3H86.9z"/>
<path class="st7" d="M140.5,15.8c0.8-1,2.5-1.8,3.9-1.8h59.8c1.3,0,3.1,0.8,3.9,1.8l18.6,23.4c0.8,1,0.8,2.6,0,3.6l-18.6,23.4
	c-0.8,1-2.5,1.8-3.9,1.8h-59.8c-1.3,0-3.1-0.8-3.9-1.8l-18.6-23.4c-0.8-1-0.8-2.6,0-3.6L140.5,15.8z"/>
<path class="st8" d="M140.6,15.8c0.8-1,2.6-1.8,3.9-1.8h60.1c1.3,0,3.1,0.8,3.9,1.8l18.7,23.4c0.8,1,0.8,2.6,0,3.6l-18.7,23.4
	c-0.8,1-2.6,1.8-3.9,1.8h-60.1c-1.3,0-3.1-0.8-3.9-1.8l-18.7-23.4c-0.8-1-0.8-2.6,0-3.6L140.6,15.8z"/>
<polyline class="st5" points="178.4,144.6 178.4,212.5 295.8,212.5 "/>
<rect x="177.9" y="144.2" width="0.9" height="0.5"/>
<polygon points="302.7,212.5 296.3,214.5 296.3,210.4 "/>
<polygon class="st5" points="302.7,212.5 296.3,214.5 296.3,210.4 "/>
<polyline class="st5" points="412.4,144.6 412.4,164.8 353.9,164.8 353.9,177.2 "/>
<rect x="411.9" y="144.2" width="0.9" height="0.5"/>
<polygon points="353.9,184 351.7,177.6 355.9,177.6 "/>
<polygon class="st5" points="353.9,184 351.7,177.6 355.9,177.6 "/>
<polyline class="st5" points="295.4,69.2 295.4,82.1 178.4,82.1 178.4,87.2 "/>
<rect x="294.9" y="68.7" width="0.9" height="0.5"/>
<polygon points="178.4,94 176.2,87.6 180.4,87.6 "/>
<polygon class="st5" points="178.4,94 176.2,87.6 180.4,87.6 "/>
<polyline class="st5" points="295.4,144.6 295.4,164.8 353.9,164.8 353.9,177.2 "/>
<rect x="294.9" y="144.2" width="0.9" height="0.5"/>
<polygon points="353.9,184 351.7,177.6 355.9,177.6 "/>
<polygon class="st5" points="353.9,184 351.7,177.6 355.9,177.6 "/>
<polyline class="st5" points="295.4,69.2 295.4,82.1 295.4,87.2 "/>
<rect x="294.9" y="68.7" width="0.9" height="0.5"/>
<polygon points="295.4,94 293.2,87.6 297.4,87.6 "/>
<polygon class="st5" points="295.4,94 293.2,87.6 297.4,87.6 "/>
<line class="st5" x1="107.4" y1="41" x2="115.3" y2="41"/>
<polygon points="107.4,41.5 106.9,41.5 106.9,41 106.9,40.6 107.4,40.6 "/>
<polygon points="121.2,41 115.7,43.1 115.7,38.9 "/>
<polygon class="st5" points="119.2,41 115.7,43.1 115.7,38.9 "/>
<text transform="matrix(1 0 0 1 22.6904 37.2735)"><tspan x="0" y="0" class="st9 st10">DDA search results</tspan><tspan x="-2.9" y="9.6" class="st9 st10">(pepXML and mzML)</tspan></text>
<text transform="matrix(1 0 0 1 128.2354 38.2732)"><tspan x="0" y="0" class="st9 st10">Spectral library generation </tspan><tspan x="26.7" y="9.6" class="st9 st10">(EasyPQP)</tspan></text>
<text transform="matrix(1 0 0 1 156.7919 118.3019)"><tspan x="0" y="0" class="st11 st9 st10">iRTs / ciRTs </tspan><tspan x="1.5" y="9.6" class="st11 st9 st10">(tsv or pqp)</tspan></text>
<text transform="matrix(1 0 0 1 270.0401 118.3021)"><tspan x="0" y="0" class="st11 st9 st10">Spectral library </tspan><tspan x="6.4" y="9.6" class="st11 st9 st10">(tsv or pqp)</tspan></text>
<text transform="matrix(1 0 0 1 371.0623 118.302)"><tspan x="0" y="0" class="st11 st9 st10">Mass spectrometry files </tspan><tspan x="14.7" y="9.6" class="st11 st9 st10">(Raw or mzML)</tspan></text>
<text transform="matrix(1 0 0 1 322.0208 209.2842)"><tspan x="0" y="0" class="st11 st9 st10">DIA library search </tspan><tspan x="-8.2" y="9.6" class="st11 st9 st10">(OpenSwathWorkflow)</tspan></text>
<text transform="matrix(1 0 0 1 328.2333 300.0947)"><tspan x="0" y="0" class="st11 st9 st10">FDR rescoring </tspan><tspan x="4.9" y="9.6" class="st11 st9 st10">(Pyprophet)</tspan></text>
<text transform="matrix(1 0 0 1 309.043 390.4423)"><tspan x="0" y="0" class="st11 st9 st10">Chromatogram alignment </tspan><tspan x="26.7" y="9.6" class="st11 st9 st10">(DIAlignR)</tspan></text>
<path class="st7" d="M262,16.2c0.8-1,2.5-1.8,3.9-1.8h59.8c1.3,0,3.1,0.8,3.9,1.8l18.6,23.4c0.8,1,0.8,2.6,0,3.6l-18.6,23.4
	c-0.8,1-2.5,1.8-3.9,1.8h-59.8c-1.3,0-3.1-0.8-3.9-1.8l-18.6-23.4c-0.8-1-0.8-2.6,0-3.6L262,16.2z"/>
<text transform="matrix(1 0 0 1 260.3064 36.6554)"><tspan x="0" y="0" class="st9 st10">Merge and RT align </tspan><tspan x="-8.9" y="9.6" class="st9 st10">multiple spectral libraries</tspan></text>
<path class="st8" d="M261.9,16c0.8-1,2.6-1.8,3.9-1.8h60.1c1.3,0,3.1,0.8,3.9,1.8l18.7,23.4c0.8,1,0.8,2.6,0,3.6l-18.7,23.4
	c-0.8,1-2.6,1.8-3.9,1.8h-60.1c-1.3,0-3.1-0.8-3.9-1.8L243.2,43c-0.8-1-0.8-2.6,0-3.6L261.9,16z"/>
<line class="st5" x1="228.7" y1="41.2" x2="236.6" y2="41.2"/>
<polygon points="242.5,41.2 237,43.3 237,39.2 "/>
<polygon class="st5" points="240.4,41.2 237,43.3 237,39.2 "/>
<line class="st5" x1="107.7" y1="48.1" x2="115.6" y2="48.1"/>
<polygon points="121.5,48.1 116,50.2 116,46.1 "/>
<polygon class="st5" points="119.4,48.1 116,50.2 116,46.1 "/>
<line class="st5" x1="107.7" y1="33.4" x2="115.6" y2="33.4"/>
<polygon points="121.5,33.4 116,35.4 116,31.3 "/>
<polygon class="st5" points="119.4,33.4 116,35.4 116,31.3 "/>
<line class="st5" x1="228.7" y1="48.2" x2="236.6" y2="48.2"/>
<polygon points="242.5,48.2 237,50.3 237,46.1 "/>
<polygon class="st5" points="240.5,48.2 237,50.3 237,46.1 "/>
<line class="st5" x1="228.7" y1="33.4" x2="236.6" y2="33.4"/>
<polygon points="242.5,33.4 237,35.5 237,31.3 "/>
<polygon class="st5" points="240.5,33.4 237,35.5 237,31.3 "/>
<text transform="matrix(1 0 0 1 269.0405 479.8655)"><tspan x="0" y="0" class="st11 st9 st10">Summary table </tspan><tspan x="19.1" y="9.6" class="st11 st9 st10">(tsv)</tspan></text>
<path class="st0" d="M443.3,456.9c10.9,0,19.8,10.9,19.8,24.3c0,13.5-8.9,24.3-19.8,24.3h-59.6c-10.9,0-19.8-10.9-19.8-24.3
	c0-13.5,8.9-24.3,19.8-24.3H443.3z"/>
<path class="st2" d="M441,455.9c9.9,0,17.9,11.2,17.9,25s-8,25-17.9,25h-53.6c-9.9,0-17.9-11.2-17.9-25s8-25,17.9-25H441z"/>
<text transform="matrix(1 0 0 1 392.519 480.0206)"><tspan x="0" y="0" class="st11 st9 st10">Output plots </tspan><tspan x="13.3" y="9.6" class="st11 st9 st10">(pdf)</tspan></text>
<polyline class="st5" points="412.2,457 412.2,433.8 353.7,433.8 353.7,419.7 "/>
<polyline class="st5" points="295.2,457 295.2,433.8 353.7,433.8 353.7,419.7 "/>
<image style="overflow:visible;" width="1824" height="710" xlink:href="E0E4420ACD1917CE.png"  transform="matrix(0.1333 0 0 0.1333 7.1672 228.2579)">
</image>
<image style="overflow:visible;" width="315" height="314" xlink:href="E0E4420ACD1917C9.png"  transform="matrix(-9.378368e-02 -1.364271e-04 1.296530e-04 -8.912468e-02 134.9049 350.7206)">
</image>
<rect x="171.1" y="473.1" class="st11" width="34.3" height="26.3"/>
<path class="st2" d="M322.9,455.7c9.9,0,17.9,11.2,17.9,25s-8,25-17.9,25h-53.6c-9.9,0-17.9-11.2-17.9-25s8-25,17.9-25H322.9z"/>
</svg>
