<?xml version="1.0" encoding="utf-8"?>
<!-- Generator: Adobe Illustrator 24.3.0, SVG Export Plug-In . SVG Version: 6.00 Build 0)  -->
<svg version="1.1" id="Layer_1" xmlns="http://www.w3.org/2000/svg" xmlns:xlink="http://www.w3.org/1999/xlink" x="0px" y="0px"
	 viewBox="0 0 473.7 518.9" style="enable-background:new 0 0 473.7 518.9;" xml:space="preserve">
<style type="text/css">
	.st0{fill:#70A4C7;}
	.st1{fill:#416986;}
	.st2{opacity:0;fill:none;stroke:#000000;stroke-width:0.45;stroke-miterlimit:10;}
	.st3{fill:#4984AF;}
	.st4{fill:none;stroke:#000000;stroke-width:0.9;stroke-miterlimit:10;}
	.st5{fill:#7EADCC;}
	.st6{fill:#B2B2B2;}
	.st7{fill:none;stroke:#000000;stroke-width:0.45;stroke-miterlimit:10;}
	.st8{font-family:'Helvetica';}
	.st9{font-size:8px;}
	.st10{fill:#FFFFFF;}
	.st11{fill:#3A4E5C;}
</style>
<path class="st0" d="M267.2,456.8c10.9,0,19.8,10.9,19.8,24.3c0,13.5-8.9,24.3-19.8,24.3h-59.6c-10.9,0-19.8-10.9-19.8-24.3
	c0-13.5,8.9-24.3,19.8-24.3H267.2z"/>
<path class="st1" d="M246.2,189.1c0-2,1.6-3.6,3.6-3.6h92.1c2,0,3.6,1.6,3.6,3.6v46.8c0,2-1.6,3.6-3.6,3.6h-92.1
	c-2,0-3.6-1.6-3.6-3.6V189.1z"/>
<path class="st2" d="M246.2,189.1c0-2,1.6-3.6,3.6-3.6h92.1c2,0,3.6,1.6,3.6,3.6v46.8c0,2-1.6,3.6-3.6,3.6h-92.1
	c-2,0-3.6-1.6-3.6-3.6V189.1z"/>
<path class="st3" d="M246.2,277.7c0-1.3,1-2.2,2.2-2.2h94.8c1.3,0,2.2,1,2.2,2.2v49.5c0,1.3-1,2.2-2.2,2.2h-94.8
	c-1.3,0-2.2-1-2.2-2.2V277.7z"/>
<path class="st2" d="M246.2,277.7c0-1.3,1-2.2,2.2-2.2h94.8c1.3,0,2.2,1,2.2,2.2v49.5c0,1.3-1,2.2-2.2,2.2h-94.8
	c-1.3,0-2.2-1-2.2-2.2V277.7z"/>
<line class="st4" x1="295.9" y1="239.9" x2="295.9" y2="267.2"/>
<rect x="295.4" y="239.5" width="0.9" height="0.5"/>
<polygon points="295.9,274 293.7,267.6 297.9,267.6 "/>
<polygon class="st4" points="295.9,274 293.7,267.6 297.9,267.6 "/>
<path class="st5" d="M246.2,367.7c0-1.3,1-2.2,2.2-2.2h94.8c1.3,0,2.2,1,2.2,2.2v49.5c0,1.3-1,2.2-2.2,2.2h-94.8
	c-1.3,0-2.2-1-2.2-2.2V367.7z"/>
<path class="st2" d="M246.2,367.7c0-1.3,1-2.2,2.2-2.2h94.8c1.3,0,2.2,1,2.2,2.2v49.5c0,1.3-1,2.2-2.2,2.2h-94.8
	c-1.3,0-2.2-1-2.2-2.2V367.7z"/>
<line class="st4" x1="295.9" y1="329.9" x2="295.9" y2="357.2"/>
<rect x="295.4" y="329.5" width="0.9" height="0.5"/>
<polygon points="295.9,364 293.7,357.6 297.9,357.6 "/>
<polygon class="st4" points="295.9,364 293.7,357.6 297.9,357.6 "/>
<rect x="295.4" y="419.5" width="0.9" height="0.5"/>
<path class="st6" d="M87.9,16.6c10.9,0,19.8,10.9,19.8,24.3c0,13.5-8.9,24.3-19.8,24.3H28.3C17.3,65.3,8.4,54.4,8.4,41
	c0-13.5,8.9-24.3,19.8-24.3H87.9z"/>
<path class="st7" d="M87.9,16.6c10.9,0,19.8,10.9,19.8,24.3c0,13.5-8.9,24.3-19.8,24.3H28.3C17.3,65.3,8.4,54.4,8.4,41
	c0-13.5,8.9-24.3,19.8-24.3H87.9z"/>
<path class="st6" d="M141.5,15.8c0.8-1,2.5-1.8,3.9-1.8h59.8c1.3,0,3.1,0.8,3.9,1.8l18.6,23.4c0.8,1,0.8,2.6,0,3.6l-18.6,23.4
	c-0.8,1-2.5,1.8-3.9,1.8h-59.8c-1.3,0-3.1-0.8-3.9-1.8l-18.6-23.4c-0.8-1-0.8-2.6,0-3.6L141.5,15.8z"/>
<path class="st7" d="M141.6,15.8c0.8-1,2.6-1.8,3.9-1.8h60.1c1.3,0,3.1,0.8,3.9,1.8l18.7,23.4c0.8,1,0.8,2.6,0,3.6l-18.7,23.4
	c-0.8,1-2.6,1.8-3.9,1.8h-60.1c-1.3,0-3.1-0.8-3.9-1.8l-18.7-23.4c-0.8-1-0.8-2.6,0-3.6L141.6,15.8z"/>
<polyline class="st4" points="296.4,69.2 296.4,82.1 167.1,82.1 167.1,87.2 "/>
<rect x="295.9" y="68.7" width="0.9" height="0.5"/>
<polygon points="167.1,94 164.8,87.6 169.4,87.6 "/>
<polygon class="st4" points="167.1,94 164.8,87.6 169.4,87.6 "/>
<polyline class="st4" points="296.4,69.2 296.4,82.1 296.4,87.2 "/>
<rect x="295.9" y="68.7" width="0.9" height="0.5"/>
<polygon points="296.4,94 294.2,87.6 298.4,87.6 "/>
<polygon class="st4" points="296.4,94 294.2,87.6 298.4,87.6 "/>
<line class="st4" x1="108.4" y1="41" x2="116.3" y2="41"/>
<polygon points="108.4,41.5 107.9,41.5 107.9,41 107.9,40.6 108.4,40.6 "/>
<polygon points="122.2,41 116.7,43.1 116.7,38.9 "/>
<polygon class="st4" points="120.2,41 116.7,43.1 116.7,38.9 "/>
<text transform="matrix(1 0 0 1 23.6904 37.2735)"><tspan x="0" y="0" class="st8 st9">DDA search results</tspan><tspan x="-2.9" y="9.6" class="st8 st9">(pepXML and mzML)</tspan></text>
<text transform="matrix(1 0 0 1 129.2354 38.2732)"><tspan x="0" y="0" class="st8 st9">Spectral library generation </tspan><tspan x="26.7" y="9.6" class="st8 st9">(EasyPQP)</tspan></text>
<text transform="matrix(1 0 0 1 264.0208 209.2842)"><tspan x="0" y="0" class="st10 st8 st9">DIA library search </tspan><tspan x="-8.2" y="9.6" class="st10 st8 st9">(OpenSwathWorkflow)</tspan></text>
<text transform="matrix(1 0 0 1 270.2333 300.0947)"><tspan x="0" y="0" class="st10 st8 st9">FDR rescoring </tspan><tspan x="4.9" y="9.6" class="st10 st8 st9">(Pyprophet)</tspan></text>
<text transform="matrix(1 0 0 1 251.043 390.4423)"><tspan x="0" y="0" class="st10 st8 st9">Chromatogram alignment </tspan><tspan x="26.7" y="9.6" class="st10 st8 st9">(DIAlignR)</tspan></text>
<path class="st6" d="M263,16.2c0.8-1,2.5-1.8,3.9-1.8h59.8c1.3,0,3.1,0.8,3.9,1.8l18.6,23.4c0.8,1,0.8,2.6,0,3.6l-18.6,23.4
	c-0.8,1-2.5,1.8-3.9,1.8h-59.8c-1.3,0-3.1-0.8-3.9-1.8l-18.6-23.4c-0.8-1-0.8-2.6,0-3.6L263,16.2z"/>
<text transform="matrix(1 0 0 1 261.3064 36.6554)"><tspan x="0" y="0" class="st8 st9">Merge and RT align </tspan><tspan x="-8.9" y="9.6" class="st8 st9">multiple spectral libraries</tspan></text>
<path class="st7" d="M262.9,16c0.8-1,2.6-1.8,3.9-1.8h60.1c1.3,0,3.1,0.8,3.9,1.8l18.7,23.4c0.8,1,0.8,2.6,0,3.6l-18.7,23.4
	c-0.8,1-2.6,1.8-3.9,1.8h-60.1c-1.3,0-3.1-0.8-3.9-1.8L244.2,43c-0.8-1-0.8-2.6,0-3.6L262.9,16z"/>
<line class="st4" x1="229.7" y1="41.2" x2="237.6" y2="41.2"/>
<polygon points="243.5,41.2 238,43.3 238,39.2 "/>
<polygon class="st4" points="241.4,41.2 238,43.3 238,39.2 "/>
<line class="st4" x1="108.7" y1="48.1" x2="116.6" y2="48.1"/>
<polygon points="122.5,48.1 117,50.2 117,46.1 "/>
<polygon class="st4" points="120.4,48.1 117,50.2 117,46.1 "/>
<line class="st4" x1="108.7" y1="33.4" x2="116.6" y2="33.4"/>
<polygon points="122.5,33.4 117,35.4 117,31.3 "/>
<polygon class="st4" points="120.4,33.4 117,35.4 117,31.3 "/>
<line class="st4" x1="229.7" y1="48.2" x2="237.6" y2="48.2"/>
<polygon points="243.5,48.2 238,50.3 238,46.1 "/>
<polygon class="st4" points="241.5,48.2 238,50.3 238,46.1 "/>
<line class="st4" x1="229.7" y1="33.4" x2="237.6" y2="33.4"/>
<polygon points="243.5,33.4 238,35.5 238,31.3 "/>
<polygon class="st4" points="241.5,33.4 238,35.5 238,31.3 "/>
<text transform="matrix(1 0 0 1 204.3784 479.8655)"><tspan x="0" y="0" class="st10 st8 st9">Summary statistics </tspan><tspan x="16.4" y="9.6" class="st10 st8 st9">(MSstats)</tspan></text>
<path class="st0" d="M385.3,456.9c10.9,0,19.8,10.9,19.8,24.3c0,13.5-8.9,24.3-19.8,24.3h-59.6c-10.9,0-19.8-10.9-19.8-24.3
	c0-13.5,8.9-24.3,19.8-24.3H385.3z"/>
<path class="st2" d="M383,455.9c9.9,0,17.9,11.2,17.9,25s-8,25-17.9,25h-53.6c-9.9,0-17.9-11.2-17.9-25s8-25,17.9-25H383z"/>
<text transform="matrix(1 0 0 1 334.519 480.0206)"><tspan x="0" y="0" class="st10 st8 st9">Output plots </tspan><tspan x="13.3" y="9.6" class="st10 st8 st9">(pdf)</tspan></text>
<polyline class="st4" points="354.2,457 354.2,433.8 295.7,433.8 295.7,419.7 "/>
<polyline class="st4" points="237.2,457 237.2,433.8 295.7,433.8 295.7,419.7 "/>
<path class="st2" d="M264.9,455.7c9.9,0,17.9,11.2,17.9,25s-8,25-17.9,25h-53.6c-9.9,0-17.9-11.2-17.9-25s8-25,17.9-25H264.9z"/>
<path class="st11" d="M448.2,96.4c10.9,0,19.8,10.9,19.8,24.3c0,13.5-8.9,24.3-19.8,24.3h-59.6c-10.9,0-19.8-10.9-19.8-24.3
	c0-13.5,8.9-24.3,19.8-24.3H448.2z"/>
<path class="st2" d="M448.2,96.4c10.9,0,19.8,10.9,19.8,24.3c0,13.5-8.9,24.3-19.8,24.3h-59.6c-10.9,0-19.8-10.9-19.8-24.3
	c0-13.5,8.9-24.3,19.8-24.3H448.2z"/>
<path class="st11" d="M326.6,96.4c10.9,0,19.8,10.9,19.8,24.3c0,13.5-8.9,24.3-19.8,24.3H267c-10.9,0-19.8-10.9-19.8-24.3
	c0-13.5,8.9-24.3,19.8-24.3H326.6z"/>
<path class="st11" d="M199,96.4c10.9,0,19.8,10.9,19.8,24.3c0,13.5-8.9,24.3-19.8,24.3h-59.6c-10.9,0-19.8-10.9-19.8-24.3
	c0-13.5,8.9-24.3,19.8-24.3H199z"/>
<rect x="418" y="144.7" width="0.9" height="0.5"/>
<text transform="matrix(1 0 0 1 147.6956 117.4631)"><tspan x="0" y="0" class="st10 st8 st9">iRTs / ciRTs </tspan><tspan x="1.5" y="9.6" class="st10 st8 st9">(tsv or pqp)</tspan></text>
<text transform="matrix(1 0 0 1 271.5343 117.4629)"><tspan x="0" y="0" class="st10 st8 st9">Spectral library </tspan><tspan x="6.4" y="9.6" class="st10 st8 st9">(tsv or pqp)</tspan></text>
<text transform="matrix(1 0 0 1 377.1632 117.4633)"><tspan x="0" y="0" class="st10 st8 st9">Mass spectrometry files </tspan><tspan x="14.7" y="9.6" class="st10 st8 st9">(Raw or mzML)</tspan></text>
<polyline class="st4" points="166.5,144.9 166.5,212.8 239,212.8 "/>
<rect x="166" y="144.4" width="0.9" height="0.5"/>
<polygon points="245.9,212.8 239.4,214.8 239.4,210.7 "/>
<polygon class="st4" points="245.9,212.8 239.4,214.8 239.4,210.7 "/>
<line class="st4" x1="297" y1="144.9" x2="297" y2="177.4"/>
<rect x="296.5" y="144.4" width="0.9" height="0.5"/>
<polygon points="297,184.3 294.9,177.9 299.1,177.9 "/>
<polygon class="st4" points="297,184.3 294.9,177.9 299.1,177.9 "/>
<polyline class="st4" points="418.5,144.9 418.5,216.3 355,216.3 "/>
<rect x="418" y="144.4" width="0.9" height="0.5"/>
<polygon points="348.1,216.3 354.5,214.2 354.5,218.4 "/>
<polygon class="st4" points="348.1,216.3 354.5,214.2 354.5,218.4 "/>
<image style="overflow:visible;" width="1854" height="1116" xlink:href="9C21CCF17403DC92.png"  transform="matrix(0.1074 0 0 0.1074 21.2498 328.8825)">
</image>
<image style="overflow:visible;" width="1824" height="710" xlink:href="9C21CCF17403DC96.png"  transform="matrix(0.1147 0 0 0.1147 11.2855 228.1339)">
</image>
<image style="overflow:visible;" width="315" height="314" xlink:href="9C21CCF17403DC91.png"  transform="matrix(-8.066536e-02 -1.173439e-04 1.115173e-04 -7.665806e-02 121.1556 333.4666)">
</image>
<rect x="152.3" y="438.8" class="st10" width="29.5" height="22.6"/>
</svg>
